<svg width="25" height="12" viewBox="0 0 25 12" fill="none" xmlns="http://www.w3.org/2000/svg">
<path opacity="0.44" fill-rule="evenodd" clip-rule="evenodd" d="M23 3.5L23.4599 3.80662C24.1097 4.23981 24.5 4.96907 24.5 5.75C24.5 6.53093 24.1097 7.26019 23.4599 7.69338L23 8V3.5ZM1.83333 0H20.1667C21.1792 0 22 0.89543 22 2V9.5C22 10.6046 21.1792 11.5 20.1667 11.5H1.83333C0.820811 11.5 0 10.6046 0 9.5V2C0 0.89543 0.820811 0 1.83333 0ZM1.90909 1C1.40701 1 1 1.44772 1 2V9.5C1 10.0523 1.40701 10.5 1.90909 10.5H20.0909C20.593 10.5 21 10.0523 21 9.5V2C21 1.44772 20.593 1 20.0909 1H1.90909Z" fill="#111111"/>
<path fill-rule="evenodd" clip-rule="evenodd" d="M2.875 2H16V9.5H2.875C2.39175 9.5 2 9.05228 2 8.5V3C2 2.44772 2.39175 2 2.875 2Z" fill="#111111"/>
</svg>
