<svg width="9" height="24" viewBox="0 0 9 24" fill="none" xmlns="http://www.w3.org/2000/svg">
<path d="M7.69705 19.954C8.005 19.9518 8.30231 19.851 8.53701 19.6693C8.77172 19.4875 8.92888 19.2363 8.98103 18.9595C9.03318 18.6828 8.977 18.3982 8.82231 18.1554C8.66761 17.9126 8.42425 17.7271 8.13476 17.6314V5.9862C8.13372 5.66897 7.99504 5.36499 7.749 5.14067C7.50297 4.91635 7.16957 4.78991 6.82162 4.78896H6.38391V4.38988C6.38287 4.07265 6.24419 3.76867 5.99815 3.54435C5.75211 3.32003 5.41872 3.19359 5.07077 3.19264V0.39908C5.07077 0.293238 5.02465 0.19173 4.94257 0.116888C4.86048 0.0420458 4.74915 0 4.63306 0C4.51697 0 4.40563 0.0420458 4.32355 0.116888C4.24146 0.19173 4.19534 0.293238 4.19534 0.39908V3.19264C3.8474 3.19359 3.514 3.32003 3.26796 3.54435C3.02193 3.76867 2.88324 4.07265 2.88221 4.38988V4.78896H2.44449C2.09655 4.78991 1.76315 4.91635 1.51711 5.14067C1.27108 5.36499 1.13239 5.66897 1.13135 5.9862V17.6314C0.841864 17.7271 0.598501 17.9126 0.443808 18.1554C0.289114 18.3982 0.232931 18.6828 0.28508 18.9595C0.33723 19.2363 0.494395 19.4875 0.7291 19.6693C0.963805 19.851 1.26112 19.9518 1.56907 19.954H2.88221V21.5503H2.44449C2.09623 21.5503 1.76223 21.6765 1.51596 21.901C1.2697 22.1255 1.13135 22.43 1.13135 22.7476C1.13135 23.0651 1.2697 23.3696 1.51596 23.5941C1.76223 23.8187 2.09623 23.9448 2.44449 23.9448H6.82162C7.16989 23.9448 7.50389 23.8187 7.75015 23.5941C7.99641 23.3696 8.13476 23.0651 8.13476 22.7476C8.13476 22.43 7.99641 22.1255 7.75015 21.901C7.50389 21.6765 7.16989 21.5503 6.82162 21.5503H6.38391V19.954H7.69705ZM3.75763 4.38988C3.75763 4.28404 3.80375 4.18253 3.88583 4.10769C3.96792 4.03285 4.07926 3.9908 4.19534 3.9908H5.07077C5.18686 3.9908 5.29819 4.03285 5.38028 4.10769C5.46237 4.18253 5.50848 4.28404 5.50848 4.38988V4.78896H3.75763V4.38988ZM2.00678 5.9862C2.00678 5.88036 2.0529 5.77885 2.13498 5.70401C2.21707 5.62917 2.3284 5.58712 2.44449 5.58712H6.82162C6.93771 5.58712 7.04904 5.62917 7.13113 5.70401C7.21322 5.77885 7.25933 5.88036 7.25933 5.9862V6.38528H5.9462C5.83011 6.38528 5.71877 6.42733 5.63669 6.50217C5.5546 6.57701 5.50848 6.67852 5.50848 6.78436C5.50848 6.89021 5.5546 6.99171 5.63669 7.06656C5.71877 7.1414 5.83011 7.18344 5.9462 7.18344H7.25933V7.9816H5.07077C4.95468 7.9816 4.84335 8.02365 4.76126 8.09849C4.67917 8.17333 4.63306 8.27484 4.63306 8.38068C4.63306 8.48653 4.67917 8.58804 4.76126 8.66288C4.84335 8.73772 4.95468 8.77977 5.07077 8.77977H7.25933V9.57792H5.9462C5.83011 9.57792 5.71877 9.61997 5.63669 9.69481C5.5546 9.76966 5.50848 9.87116 5.50848 9.97701C5.50848 10.0828 5.5546 10.1844 5.63669 10.2592C5.71877 10.334 5.83011 10.3761 5.9462 10.3761H7.25933V11.1742H5.07077C4.95468 11.1742 4.84335 11.2163 4.76126 11.2911C4.67917 11.366 4.63306 11.4675 4.63306 11.5733C4.63306 11.6792 4.67917 11.7807 4.76126 11.8555C4.84335 11.9304 4.95468 11.9724 5.07077 11.9724H7.25933V12.7706H5.9462C5.83011 12.7706 5.71877 12.8126 5.63669 12.8875C5.5546 12.9623 5.50848 13.0638 5.50848 13.1696C5.50848 13.2755 5.5546 13.377 5.63669 13.4518C5.71877 13.5267 5.83011 13.5687 5.9462 13.5687H7.25933V14.3669H5.07077C4.95468 14.3669 4.84335 14.4089 4.76126 14.4838C4.67917 14.5586 4.63306 14.6601 4.63306 14.766C4.63306 14.8718 4.67917 14.9733 4.76126 15.0482C4.84335 15.123 4.95468 15.165 5.07077 15.165H7.25933V17.5595H2.00678V5.9862ZM6.82162 22.3485C6.93771 22.3485 7.04904 22.3905 7.13113 22.4654C7.21322 22.5402 7.25933 22.6417 7.25933 22.7476C7.25933 22.8534 7.21322 22.9549 7.13113 23.0298C7.04904 23.1046 6.93771 23.1467 6.82162 23.1467H2.44449C2.3284 23.1467 2.21707 23.1046 2.13498 23.0298C2.0529 22.9549 2.00678 22.8534 2.00678 22.7476C2.00678 22.6417 2.0529 22.5402 2.13498 22.4654C2.21707 22.3905 2.3284 22.3485 2.44449 22.3485H6.82162ZM3.75763 21.5503V19.954H5.50848V21.5503H3.75763ZM1.56907 19.1558C1.45298 19.1558 1.34164 19.1138 1.25956 19.039C1.17747 18.9641 1.13135 18.8626 1.13135 18.7568C1.13135 18.6509 1.17747 18.5494 1.25956 18.4746C1.34164 18.3997 1.45298 18.3577 1.56907 18.3577H7.69705C7.81314 18.3577 7.92447 18.3997 8.00656 18.4746C8.08864 18.5494 8.13476 18.6509 8.13476 18.7568C8.13476 18.8626 8.08864 18.9641 8.00656 19.039C7.92447 19.1138 7.81314 19.1558 7.69705 19.1558H1.56907Z" fill="#142237"/>
</svg>
