<svg width="17" height="10" viewBox="0 0 17 10" fill="none" xmlns="http://www.w3.org/2000/svg">
<path fill-rule="evenodd" clip-rule="evenodd" d="M14.5 0C13.9477 0 13.5 0.447715 13.5 1V9C13.5 9.55229 13.9477 10 14.5 10H15.5C16.0523 10 16.5 9.55228 16.5 9V1C16.5 0.447715 16.0523 0 15.5 0H14.5ZM9 3C9 2.44772 9.44772 2 10 2H11C11.5523 2 12 2.44772 12 3V9C12 9.55229 11.5523 10 11 10H10C9.44771 10 9 9.55229 9 9V3ZM5.5 4C4.94772 4 4.5 4.44772 4.5 5V9C4.5 9.55228 4.94772 10 5.5 10H6.5C7.05228 10 7.5 9.55228 7.5 9V5C7.5 4.44772 7.05228 4 6.5 4H5.5ZM1 10C0.447715 10 0 9.55228 0 9V6.5C0 5.94772 0.447715 5.5 1 5.5H2C2.55228 5.5 3 5.94772 3 6.5V9C3 9.55228 2.55228 10 2 10H1Z" fill="#111111"/>
</svg>
