<svg width="14" height="20" viewBox="0 0 14 20" fill="none" xmlns="http://www.w3.org/2000/svg">
<path d="M2.36317 0.438815L3.43916 0.0948109C4.44915 -0.227193 5.52614 0.293813 5.95914 1.31183L6.81813 3.33985C7.19213 4.22286 6.98513 5.26187 6.30413 5.90788L4.41015 7.7059C4.52615 8.78191 4.88815 9.84093 5.49414 10.8829C6.06992 11.8912 6.84216 12.7736 7.76512 13.478L10.0401 12.718C10.9031 12.431 11.8421 12.762 12.3701 13.539L13.6031 15.349C14.2181 16.253 14.1081 17.499 13.3451 18.265L12.5271 19.086C11.7131 19.903 10.5501 20.2 9.4751 19.864C6.93613 19.072 4.60215 16.721 2.47217 12.811C0.339193 8.89492 -0.4138 5.57088 0.214194 2.84284C0.478191 1.69483 1.29518 0.779819 2.36317 0.438815Z" fill="white"/>
</svg>
