<svg width="126" height="138" viewBox="0 0 126 138" fill="none" xmlns="http://www.w3.org/2000/svg">
<path d="M99.2133 20.3558H99.1593C100.397 22.1942 103.396 22.825 104.992 20.8246C105.388 20.3009 105.609 19.6662 105.625 19.01C104.232 19.8352 100.7 20.7598 99.2133 20.3558Z" fill="#442257"/>
<path d="M68.849 13.5834C68.8231 15.7566 68.808 18.3251 71.1281 17.919C72.7547 17.6317 72.3875 14.8709 72.3378 13.43C72.3054 12.5162 70.5621 12.2462 70.5621 12.2462C70.5621 12.2462 68.8598 12.7647 68.849 13.5834Z" fill="#FAB550" stroke="#FAB550" stroke-linecap="round" stroke-linejoin="round"/>
<path d="M72.6165 13.5488C71.4543 13.2334 69.6915 13.309 68.5509 13.5747C68.4753 12.4406 68.3349 10.0579 69.2249 9.28881C70.305 8.35775 72.1974 8.96478 72.3594 10.4877C72.4156 10.9436 72.6165 13.5488 72.6165 13.5488Z" fill="#FC1441" stroke="#FC1441" stroke-linecap="round" stroke-linejoin="round"/>
<path d="M73.9234 30.8956C73.9234 30.8956 73.5022 26.0005 73.1608 23.5919C72.9729 22.2547 72.5625 18.4807 71.3074 18.6968C70.0523 18.9128 70.1797 21.6822 69.8211 22.6003C69.3891 23.6977 67.959 24.9096 66.5613 23.6804" stroke="#442257" stroke-linecap="round" stroke-linejoin="round"/>
<path d="M63.7185 15.6248C63.7055 12.2419 65.7102 10.5072 66.7428 9.83972C67.7754 9.17221 69.0218 8.90866 68.8361 7.81774C68.6503 6.72682 66.9934 6.60369 66.1919 6.93204C65.0319 7.4073 63.4031 8.42045 62.4893 9.93045C61.5258 11.5247 60.8151 12.728 60.7373 16.3658" stroke="#442257" stroke-linecap="round" stroke-linejoin="round"/>
<path d="M66.2956 34.1812C65.7037 31.8157 65.1917 29.8607 65.1917 29.8607C64.2347 29.2839 63.8286 29.0895 62.9019 28.3291C61.1564 26.8969 60.1541 24.8576 59.6032 22.7125C59.2057 21.155 59.4779 19.2993 61.5604 20.2261C62.6988 20.7337 64.4292 23.6824 63.8783 24.9786C63.0898 26.845 61.4653 24.2744 61.1067 23.1662" stroke="#442257" stroke-linecap="round" stroke-linejoin="round"/>
<path d="M59.6853 20.481C58.9249 16.9771 62.1739 16.7093 63.6623 18.8155C64.6819 20.2585 66.9869 24.9808 63.8783 24.9808" stroke="#442257" stroke-linecap="round" stroke-linejoin="round"/>
<path d="M60.1324 17.7202C60.612 14.8622 63.9733 15.2186 65.317 17.3616C65.8398 18.1911 68.2917 24.2117 65.7771 23.8898" stroke="#442257" stroke-linecap="round" stroke-linejoin="round"/>
<path d="M68.8685 2.77355L68.6157 1" stroke="#442257" stroke-linecap="round" stroke-linejoin="round"/>
<path d="M74.444 3.53405L75.4572 2.26599" stroke="#442257" stroke-linecap="round" stroke-linejoin="round"/>
<path d="M77.2782 5.14755L78.2914 4.63989" stroke="#442257" stroke-linecap="round" stroke-linejoin="round"/>
<path d="M79.2635 12.4017L80.6568 12.6545" stroke="#442257" stroke-linecap="round" stroke-linejoin="round"/>
<path d="M74.9063 33.2242L74.5607 30.6816C73.0356 31.0986 70.4368 32.4098 68.9786 33.0989C68.1513 33.4899 66.3539 34.1056 66.058 34.9805C65.8895 35.4968 66.5678 38.2857 66.5678 38.2857" stroke="#442257" stroke-linecap="round" stroke-linejoin="round"/>
<path d="M83.0094 61.0372C83.0094 61.0372 81.1688 63.6965 79.9289 65.1028C77.9047 67.4034 72.0894 72.3266 69.6289 66.8612C67.4557 62.0352 67.4557 56.0039 66.9437 50.7523C66.6542 47.7928 66.462 44.6129 66.2697 41.6793C66.1574 39.9706 65.7231 39.1756 67.0474 38.156C69.7347 36.0887 73.3013 34.4058 76.3623 32.952C77.1702 38.6701 78.2417 45.2869 75.8266 50.7588C76.5351 48.7995 77.2437 47.7021 77.7405 47.8382C78.6327 48.0844 78.1985 51.2254 77.3279 53.4181C77.3279 50.4283 78.2849 48.1687 79.5163 45.8011C80.7476 43.4335 82.8517 40.7677 84.7592 38.1603C86.5241 35.7452 88.8118 33.3862 91.6438 32.5653" stroke="#442257" stroke-linecap="round" stroke-linejoin="round"/>
<path d="M109.483 20.6948C110.98 19.6147 113.078 21.2284 112.002 23.205C111.38 24.3456 110.246 24.1836 109.14 24.1188C109.019 25.4344 108.628 26.8753 108.323 28.2017C108.126 29.0658 107.599 31.658 107.599 31.658" stroke="#442257" stroke-linecap="round" stroke-linejoin="round"/>
<path d="M96.4935 29.8608C96.4935 29.8608 96.9709 15.4974 98.9648 8.37292" stroke="#442257" stroke-linecap="round" stroke-linejoin="round"/>
<path d="M98.6236 18.9193C98.9606 21.76 103.035 23.2656 104.99 20.8116C105.569 20.0858 105.964 18.606 105.206 17.8564C104.329 16.9923 103.4 17.6836 102.534 18.0919C101.505 18.5758 100.049 18.7162 98.9433 18.3079C98.5933 18.5304 98.6668 18.6687 98.6236 18.9193Z" stroke="#442257" stroke-linecap="round" stroke-linejoin="round"/>
<path d="M99.2133 20.3558C100.71 20.7684 104.251 19.8395 105.634 18.9991" stroke="#442257" stroke-linecap="round" stroke-linejoin="round"/>
<path d="M87.7381 54.1181L87.2348 51.2882C87.2348 51.2882 94.3635 49.5773 96.5972 49.1279C96.7722 49.776 97.053 51.7397 97.053 51.7397" stroke="#442257" stroke-linecap="round" stroke-linejoin="round"/>
<path d="M99.8484 15.4778V14.5835" stroke="#442257" stroke-linecap="round" stroke-linejoin="round"/>
<path d="M98.7705 8.04234C98.999 8.47646 99.2901 8.87461 99.6346 9.22399C101.579 11.1509 104.664 9.26504 106.999 9.20887C106.534 10.1853 105.618 10.5914 105.487 11.8271C105.355 13.0627 105.938 13.7108 106.733 14.5943C107.597 15.5643 107.923 16.2988 108.301 17.5884C108.582 18.5519 108.582 20.1656 109.764 20.4205C110.71 19.5456 110.539 17.1197 110.745 15.7825C110.943 14.4863 111.008 13.1902 111.192 11.9156C111.408 10.4467 112.097 7.91921 111.36 6.50426C111.22 6.23423 110.807 6.35304 110.695 6.20182C110.494 5.93611 110.544 5.50623 110.295 5.28156C109.498 4.56437 108.172 4.36994 107.15 4.13448C106.007 3.86877 105.104 3.80828 104.074 3.22718C103.372 2.8297 102.955 1.96776 102.307 3.2099C101.797 2.58127 101.302 1.96128 100.9 3.14725C99.6367 1.54435 98.3082 3.7478 98.144 5.00073C98.0413 6.05458 98.2597 7.11486 98.7705 8.04234V8.04234Z" stroke="#442257" stroke-linecap="round" stroke-linejoin="round"/>
<path d="M107.828 31.4182C105.147 31.2973 102.909 31.0186 100.957 30.8955C99.3256 30.7939 97.6666 30.3554 96.0723 30.1588C97.0941 31.455 96.6837 34.2633 97.1978 35.8986C97.9172 34.1704 99.4012 32.6366 100.069 30.9041C100.857 32.8721 101.736 35.0345 102.177 37.1277C103.817 35.1749 105.668 32.669 107.828 31.4182Z" stroke="#442257" stroke-linecap="round" stroke-linejoin="round"/>
<path d="M99.4401 35.5681C99.1809 38.5816 98.9087 47.9052 98.7639 50.9295" stroke="#442257" stroke-linecap="round" stroke-linejoin="round"/>
<path d="M105.396 62.0958L103.905 61.9489C103.905 61.9489 103.538 55.2349 103.616 52.6081C105.495 52.176 108.405 52.5346 110.187 53.2194C110.49 54.6517 110.572 60.858 110.572 60.858" stroke="#442257" stroke-linecap="round" stroke-linejoin="round"/>
<path d="M104.128 61.9899C104.394 61.0113 105.675 58.7949 106.839 58.7885C107.841 58.7885 108.783 60.063 109.269 61.2446" stroke="#442257" stroke-linecap="round" stroke-linejoin="round"/>
<path d="M107.098 56.6066C108.269 56.8119 108.353 58.7021 107.016 58.6113C105.679 58.5206 105.929 56.4014 107.098 56.6066Z" stroke="#442257" stroke-linecap="round" stroke-linejoin="round"/>
<path d="M107.286 52.4546C107.368 51.5021 107.402 50.546 107.385 49.5901" stroke="#442257" stroke-linecap="round" stroke-linejoin="round"/>
<path d="M104.247 50.072C104.247 50.072 108.476 49.735 110.377 49.4563" stroke="#442257" stroke-linecap="round" stroke-linejoin="round"/>
<path d="M112.842 33.4641C114.458 36.1104 112.697 38.3808 111.146 39.6445C108.783 41.5736 107.357 42.8676 104.882 44.6433C107.357 42.8676 108.837 43.4271 108.908 44.7621C108.98 46.0972 106.04 47.7908 103.508 50.9296C102.741 51.8801 101.901 53.0272 101.091 54.265" stroke="#442257" stroke-linecap="round" stroke-linejoin="round"/>
<path d="M91.8923 49.8752C91.2031 47.0669 90.4406 41.9709 92.8968 42.7724C91.4537 39.3657 90.5032 36.2204 91.8426 32.5588C92.4021 31.0466 94.1821 30.0831 95.8693 30.3985C95.8693 30.3985 95.2557 43.1439 95.2212 49.037" stroke="#442257" stroke-linecap="round" stroke-linejoin="round"/>
<path d="M114.218 45.2611C114.037 48.0305 113.881 49.9423 113.587 52.7074C113.281 55.613 112.836 59.3264 112.836 59.3264" stroke="#442257" stroke-linecap="round" stroke-linejoin="round"/>
<path d="M65.8182 43.9023L66.0342 43.9456" stroke="#442257" stroke-linecap="round" stroke-linejoin="round"/>
<path d="M65.9932 45.6564C66.0848 45.6937 66.1736 45.7378 66.2589 45.7881" stroke="#442257" stroke-linecap="round" stroke-linejoin="round"/>
<path d="M65.95 47.3414C66.1019 47.3534 66.2494 47.3983 66.382 47.4732" stroke="#442257" stroke-linecap="round" stroke-linejoin="round"/>
<path d="M102.65 15.0264V14.1299" stroke="#442257" stroke-linecap="round" stroke-linejoin="round"/>
<path d="M87.2759 62.9361C89.004 63.1046 88.8917 65.1244 90.8122 66.3752C91.6115 66.8979 92.7261 66.6603 94.0698 66.4853L94.6358 66.4011C94.6466 66.1354 94.6595 65.8589 94.6747 65.5629C95.4329 65.5629 98.09 64.8587 98.09 64.8587L98.1829 64.8371C98.1526 64.5843 98.1224 64.3337 98.09 64.0896C99.8679 63.69 101.438 63.299 102.83 62.9361C102.162 60.7477 100.512 50.8668 100.512 50.8668C100.512 50.8668 93.4088 52.3487 91.5639 52.7462C90.0518 53.0724 85.1027 54.5954 85.1027 54.5954C85.2949 57.9157 86.6926 65.6493 86.6926 65.6493L86.9713 66.6041C86.8049 65.1395 86.5911 62.8669 87.2759 62.9361Z" fill="#30A64A" fill-opacity="0.2" stroke="#30A64A" stroke-opacity="0.2" stroke-linecap="round" stroke-linejoin="round"/>
<path d="M114.741 58.4989C113.631 58.7149 112.365 59.5315 112.149 60.6829C113.063 60.9788 113.948 61.4822 114.21 62.4521C112.298 59.363 109.345 61.5599 98.09 64.0896C98.3902 66.3859 98.5695 69.1078 98.7078 71.2486C98.8449 73.4348 98.8449 75.6274 98.7078 77.8136C98.7078 77.8136 106.316 76.3295 110.101 74.9469C112.54 74.0547 121.468 71.8556 123.183 69.7321C125.106 67.3559 124.87 62.3873 124.87 56.209C124.87 50.0308 125.544 43.8071 123.818 39.694C122.324 36.1383 117.781 34.0212 112.834 33.4639C111.594 31.8718 107.591 31.8783 107.591 31.8783C107.591 31.8783 105.8 35.0625 105.23 36.3025C103.041 41.0939 101.458 45.0471 100.051 50.0718" stroke="#442257" stroke-linecap="round" stroke-linejoin="round"/>
<path d="M98.0899 64.8566C98.0899 64.8566 95.4329 65.55 94.6746 65.5608C94.5407 67.9371 94.6487 69.1641 94.6487 71.5533C94.6487 73.329 94.4521 75.8046 94.4154 77.5458L98.7553 76.9539" stroke="#442257" stroke-linecap="round" stroke-linejoin="round"/>
<path d="M86.6926 65.5996C83.7374 65.7595 84.6706 70.2614 84.6706 72.2553C84.6706 73.6983 84.5215 75.2105 85.3727 76.4267C86.3296 77.7963 87.7143 77.5868 89.246 77.4399C90.8921 77.2843 92.4085 76.8264 93.9531 76.5887" stroke="#442257" stroke-linecap="round" stroke-linejoin="round"/>
<path d="M94.0698 66.4853C92.7261 66.6603 91.6114 66.8979 90.8121 66.3752C88.8917 65.1244 89.0083 63.1046 87.2758 62.9361C86.3577 62.8453 87.0598 66.9455 87.0857 67.6886" stroke="#442257" stroke-linecap="round" stroke-linejoin="round"/>
<path d="M84.6706 71.7952C84.8067 72.3914 85.7183 73.0135 86.5284 73.1216" stroke="#442257" stroke-linecap="round" stroke-linejoin="round"/>
<path d="M84.7009 74.4092C84.8326 74.9406 86.5392 75.4893 87.0771 75.4699" stroke="#442257" stroke-linecap="round" stroke-linejoin="round"/>
<path d="M104.64 76.766L105.111 77.3536" stroke="#442257" stroke-linecap="round" stroke-linejoin="round"/>
<path d="M106.413 76.2476L106.882 76.9518" stroke="#442257" stroke-linecap="round" stroke-linejoin="round"/>
<path d="M102.972 77.1937L103.443 77.9001" stroke="#442257" stroke-linecap="round" stroke-linejoin="round"/>
<path d="M96.4936 77.3536C96.4936 77.3536 96.0831 92.728 96.0723 96.288C96.0594 100.434 95.8563 104.268 96.0723 108.424C98.4486 109.133 99.0426 109.424 101.57 109.584C104.454 109.768 110.693 109.863 113.484 109.152C114.83 108.811 116.912 108.621 117.953 107.606C118.55 107.022 119.308 104.728 117.683 105.555C117.798 104.89 119.468 102.717 117.562 103.082C119.04 99.1288 118.139 88.9497 118.323 86.5583C118.47 84.6768 118.323 79.6672 118.31 77.7964C118.286 76.2 118.526 72.5146 118.526 72.5146" stroke="#442257" stroke-linecap="round" stroke-linejoin="round"/>
<path d="M88.397 77.777C88.4272 80.4751 88.4596 85.9556 88.3473 88.6516C88.0945 94.6679 88.6389 101.194 88.3192 107.217C87.0843 107.369 85.8413 107.445 84.5971 107.446C82.5492 107.446 80.672 107.23 80.0801 107.217C80.0801 105.75 80.2961 99.9518 80.3069 98.5757C80.335 96.2297 80.3933 93.4451 80.538 91.1121C80.8923 85.4004 81.5836 79.7104 81.8601 74.0009C82.2533 65.8611 83.1217 59.7433 84.6684 51.8239C84.9384 50.4435 87.0835 42.5824 87.0835 42.5824" stroke="#442257" stroke-linecap="round" stroke-linejoin="round"/>
<path d="M83.8043 80.0106C83.8043 80.0106 81.5599 82.4474 80.7433 83.8213" stroke="#442257" stroke-linecap="round" stroke-linejoin="round"/>
<path d="M109.701 109.625C109.701 109.625 109.742 115.439 109.684 117.34C109.624 119.342 109.654 121.33 109.55 123.328C109.483 124.624 109.621 126.231 109.632 127.707C109.645 129.37 108.999 130.614 107.219 130.709C105.405 130.806 103.547 130.755 101.728 130.791C99.6756 130.837 97.429 131.02 95.3962 130.733C93.2359 130.426 93.0502 129.845 92.8946 127.897C92.7067 125.555 92.5641 123.228 92.5641 120.872C92.5358 119.151 92.5985 117.431 92.7521 115.717C93.0588 112.829 92.8406 109.852 92.819 106.942C92.7931 103.721 92.7513 100.5 92.6937 97.2796C92.5987 91.9352 92.9335 77.0598 92.9335 77.0598" stroke="#442257" stroke-linecap="round" stroke-linejoin="round"/>
<path d="M83.7784 107.43C83.7179 110.513 83.4349 113.794 83.8864 116.832C84.3379 119.869 83.746 122.995 84.0614 126.065C84.1413 126.849 83.9707 128.516 84.4546 129.119C85.1307 129.96 88.2393 129.551 89.2546 129.551C90.419 129.551 92.9789 129.633 92.9789 129.633" stroke="#442257" stroke-linecap="round" stroke-linejoin="round"/>
<path d="M108.476 136.423H94.4349C94.3027 136.406 94.182 136.339 94.098 136.236C94.0139 136.132 93.9729 136.001 93.9834 135.868C93.9845 135.849 93.9845 135.83 93.9834 135.812C93.9723 135.713 93.9847 135.614 94.0196 135.522C94.0546 135.429 94.111 135.346 94.1843 135.28C95.8088 134.127 98.3967 134.585 100.557 134.416C102.218 134.295 104.424 134.254 106.07 134.137C106.822 134.083 107.662 133.921 108.377 134.086C108.502 134.773 108.617 135.755 108.476 136.423Z" fill="#442257" stroke="#442257" stroke-linecap="round" stroke-linejoin="round"/>
<path d="M97.2108 135.915H84.2493C84.095 135.916 83.9461 135.859 83.8315 135.755C83.717 135.652 83.6449 135.509 83.6294 135.356C83.6167 135.243 83.6359 135.128 83.6847 135.025C83.7335 134.922 83.8101 134.835 83.9059 134.773C85.8911 133.502 89.8055 134.112 91.97 134.148C94.0784 134.185 94.7956 134.068 96.8759 133.915L97.2108 135.915Z" fill="#442257" stroke="#442257" stroke-linecap="round" stroke-linejoin="round"/>
<path d="M84.5323 68.9761C84.6382 69.5788 85.4461 70.5163 86.2605 70.5163" stroke="#442257" stroke-linecap="round" stroke-linejoin="round"/>
<path d="M102.97 81.3933C105.791 82.6095 107.889 85.2623 110.263 87.0877" stroke="#442257" stroke-linecap="round" stroke-linejoin="round"/>
<path d="M105.554 54.6299C105.832 54.4701 106.902 53.8436 106.912 54.5651C107.396 54.4117 108.297 54.0013 108.492 54.8071" stroke="#442257" stroke-linecap="round" stroke-linejoin="round"/>
<path d="M41.8741 89.885C41.8741 89.885 41.7618 92.7171 41.7164 93.5034" stroke="#442257" stroke-linecap="round" stroke-linejoin="round"/>
<path d="M53.4768 103.648V103.611C53.192 103.675 52.9034 103.719 52.6127 103.745C52.4075 103.756 52.2131 103.773 52.0338 103.795L52.0942 104.192C52.159 104.942 52.3599 106.164 52.3599 106.164C52.3599 106.164 48.8906 106.715 43.6931 107.279C38.4956 107.843 35.5274 108.158 35.5274 108.158C35.5274 108.158 35.279 105.08 35.1731 103.587C35.0629 102.036 34.7087 97.0332 34.7087 97.0332C34.7087 97.0332 36.7782 96.5125 38.865 96.2187L39.176 96.1734C38.6921 95.7737 38.4523 94.9421 38.3011 94.1039H38.2039L34.7087 94.5575L34.538 94.5791C34.322 98.7484 34.1794 102.924 33.9591 106.737C33.6842 106.895 33.3881 107.012 33.0798 107.085L33.4363 110.109L53.9585 107.696L53.4768 103.648Z" fill="#30A64A" fill-opacity="0.2" stroke="#30A64A" stroke-opacity="0.2" stroke-linecap="round" stroke-linejoin="round"/>
<path d="M50.6123 94.6398C50.6123 94.6398 50.7635 95.5558 50.8564 96.085L50.8672 96.1585C51.39 96.0764 52.0186 95.9684 52.563 95.8798L52.1655 92.5077L40.7832 93.8751L40.5931 93.8924C40.5413 94.8019 40.4246 95.5925 40.187 96.0354L40.3296 96.0159C40.5931 95.9641 50.6123 94.6398 50.6123 94.6398Z" fill="#30A64A" fill-opacity="0.2" stroke="#30A64A" stroke-opacity="0.2" stroke-linecap="round" stroke-linejoin="round"/>
<path d="M19.317 45.8833C20.5462 52.2905 21.6587 54.8374 20.4403 58.0713C20.6131 57.5356 21.4556 54.0511 22.1685 54.211C23.0974 54.427 23.2076 57.9222 23.5035 58.633C23.1989 57.1208 23.8125 55.2932 24.9747 54.0554C26.422 52.513 32.0581 48.3135 33.7171 47.026C36.4196 44.9306 38.6857 43.6388 41.0619 41.1804C41.0619 41.1804 43.071 44.518 43.894 45.9049C44.4989 46.9288 45.8058 49.5449 45.795 50.7027C45.795 51.3746 44.73 52.1782 44.3304 52.6642C43.058 54.2066 42.3214 55.2738 40.874 56.7039C38.4459 59.1169 35.3611 62.3335 33.6847 64.0292C32.0084 65.725 30.0015 68.3281 24.8105 70.2939C22.7431 71.0802 18.5458 71.8731 16.2063 71.1969C13.8667 70.5207 11.8858 67.4726 11.2377 65.3059C10.1914 61.8935 9.47456 58.3887 9.09693 54.8396" stroke="#442257" stroke-linecap="round" stroke-linejoin="round"/>
<path d="M43.7579 50.6228C43.7579 50.6228 41.494 53.0163 39.917 54.5264C39.2473 55.1744 38.6209 55.8225 37.9728 56.4511" stroke="#442257" stroke-linecap="round" stroke-linejoin="round"/>
<path d="M39.4504 54.0554C39.5544 54.385 39.6388 54.7204 39.7031 55.0599" stroke="#442257" stroke-linecap="round" stroke-linejoin="round"/>
<path d="M41.1721 52.6642C41.1549 52.9936 41.1996 53.3233 41.3038 53.6363" stroke="#442257" stroke-linecap="round" stroke-linejoin="round"/>
<path d="M42.4552 51.4177C42.5679 51.6017 42.6469 51.8044 42.6885 52.0161" stroke="#442257" stroke-linecap="round" stroke-linejoin="round"/>
<path d="M41.7078 41.6858L43.3237 40.3896L47.5275 47.6632L45.6891 49.5491" stroke="#442257" stroke-linecap="round" stroke-linejoin="round"/>
<path d="M24.8753 28.206C24.8753 28.206 25.0805 25.6483 25.0459 24.3176C20.3949 27.3225 20.3301 19.2497 25.0135 20.4681C25.1734 19.9777 25.2598 18.1415 25.2598 18.1415" stroke="#442257" stroke-linecap="round" stroke-linejoin="round"/>
<path d="M14.5061 36.0498C14.1843 33.8896 14.3312 31.805 15.5863 30.012C17.6039 27.1345 18.8266 24.1793 19.2587 20.6927C19.5373 18.5325 20.5159 16.9512 21.3951 14.94C22.0756 13.3825 22.2592 11.6694 23.0218 10.1335C24.3914 7.35975 26.8713 6.13922 29.8589 5.55379C32.0192 5.12174 35.5317 5.10014 36.5557 7.58657C36.8883 8.3945 37.7589 11.0149 36.7047 11.3972C36.0091 11.6478 33.1339 9.61287 32.4253 9.291C31.451 11.1315 29.9691 12.5724 28.7054 14.2833C27.986 15.2597 25.7783 17.9557 24.1365 18.688" stroke="#442257" stroke-linecap="round" stroke-linejoin="round"/>
<path d="M30.7187 20.6667C31.1853 21.1355 31.855 21.5719 32.5506 21.3731" stroke="#442257" stroke-linecap="round" stroke-linejoin="round"/>
<path d="M5.37696 109.85C5.2339 112.685 4.9201 115.51 4.43726 118.307C3.71574 122.345 2.89485 126.3 1.9141 130.156C4.35949 130.24 6.98418 129.94 9.47493 129.828C11.2204 129.754 13.1063 129.774 14.8064 129.666C16.1825 125.628 16.9126 120.059 17.6147 115.84C18.0467 113.216 18.2973 111.714 18.5825 109.07" stroke="#442257" stroke-linecap="round" stroke-linejoin="round"/>
<path d="M1.07162 136.639H16.5043C16.5519 134.945 15.8044 134.732 14.3268 134.643C12.1666 134.513 9.93507 134.546 7.77483 134.524C5.61459 134.503 3.52564 134.682 1.44534 134.548L1.07162 136.639Z" fill="#442257" stroke="#442257" stroke-linecap="round" stroke-linejoin="round"/>
<path d="M2.12368 134.531L2.83872 130.649" stroke="#442257" stroke-linecap="round" stroke-linejoin="round"/>
<path d="M11.8857 134.291C12.3415 132.602 12.564 131.504 12.9529 129.811" stroke="#442257" stroke-linecap="round" stroke-linejoin="round"/>
<path d="M15.327 127.935C15.327 127.935 18.9389 128.13 21.0797 128.067C22.849 128.015 26.9707 127.819 26.9707 127.819C26.9707 127.819 28.5304 119.956 28.9408 117.147C29.7336 111.708 30.5178 106.227 30.7813 100.729C31.0255 95.6594 31.1572 92.3413 31.4121 87.2734C31.5612 84.2858 32.1509 73.4133 32.1466 70.4991C30.1915 70.9351 28.1961 71.1653 26.193 71.1861" stroke="#442257" stroke-linecap="round" stroke-linejoin="round"/>
<path d="M23.1665 128.415C22.6545 130.126 21.7559 133.355 21.7559 133.355" stroke="#442257" stroke-linecap="round" stroke-linejoin="round"/>
<path d="M11.62 135.818H25.1647C26.9275 132.725 21.2309 133.384 12.1795 133.384" fill="#442257"/>
<path d="M11.62 135.818H25.1647C26.9275 132.725 21.2309 133.384 12.1795 133.384" stroke="#442257" stroke-linecap="round" stroke-linejoin="round"/>
<path d="M30.4508 107.355C31.3646 107.418 33.1814 107.238 33.9547 106.746C34.3868 99.1978 34.5358 90.2264 35.4669 82.7044C36.048 78.0383 36.6421 60.9897 36.6421 60.9897" stroke="#442257" stroke-linecap="round" stroke-linejoin="round"/>
<path d="M32.004 70.5573C34.5315 70.0281 35.2033 68.6455 34.8123 66.3168C34.471 64.284 34.6719 63.1283 34.6719 63.1283" stroke="#442257" stroke-linecap="round" stroke-linejoin="round"/>
<path d="M9.09258 81.9548C12.0132 81.3067 15.9773 78.9629 17.7875 77.1375" stroke="#442257" stroke-linecap="round" stroke-linejoin="round"/>
<path d="M42.3084 55.1787C42.6389 59.8664 42.9305 64.1178 43.0385 65.9518C43.4209 72.4714 43.7363 76.2345 43.652 82.7908C43.6369 83.9509 43.652 85.9988 43.4468 87.1113C41.9001 87.7075 36.534 87.6449 35.4129 87.7594" stroke="#442257" stroke-linecap="round" stroke-linejoin="round"/>
<path d="M42.2522 87.5498L42.3084 89.5631L35.4129 89.885" stroke="#442257" stroke-linecap="round" stroke-linejoin="round"/>
<path d="M52.6084 103.741C53.2154 103.71 54.7016 103.319 54.7016 103.319C54.5591 100.855 54.2977 98.176 53.6863 95.7219C52.9907 95.7608 50.4093 96.2814 49.867 96.2728C50.1349 98.0895 50.9472 103.989 50.9472 103.989C51.4912 103.851 52.0477 103.768 52.6084 103.741V103.741Z" stroke="#442257" stroke-linecap="round" stroke-linejoin="round"/>
<path d="M47.508 97.2299C47.7241 97.6619 47.5448 98.4029 47.5923 98.9408C47.6463 99.5478 47.8083 100.217 47.9271 100.835C48.1756 102.086 48.3008 103.358 48.3009 104.633" stroke="#442257" stroke-linecap="round" stroke-linejoin="round"/>
<path d="M45.5746 97.543C45.9246 99.8155 45.8814 102.388 46.4647 104.57" stroke="#442257" stroke-linecap="round" stroke-linejoin="round"/>
<path d="M39.5346 98.2192C39.7506 98.6513 39.5713 99.3901 39.6189 99.9301C39.6729 100.535 39.8349 101.207 39.9537 101.825C40.202 103.075 40.3272 104.346 40.3274 105.62" stroke="#442257" stroke-linecap="round" stroke-linejoin="round"/>
<path d="M37.6012 98.5303C37.9512 100.803 37.908 103.378 38.4912 105.56" stroke="#442257" stroke-linecap="round" stroke-linejoin="round"/>
<path d="M43.9026 97.6749C43.2654 99.0985 44.2526 101.395 44.3066 102.92C44.3304 103.613 44.3066 104.352 44.5356 104.974" stroke="#442257" stroke-linecap="round" stroke-linejoin="round"/>
<path d="M41.7078 97.9968C41.7878 99.4247 42.0837 100.898 42.1939 102.348C42.2652 103.263 42.114 104.508 42.4315 105.383" stroke="#442257" stroke-linecap="round" stroke-linejoin="round"/>
<path d="M40.6147 91.1185C40.6709 93.7346 40.6536 97.245 39.23 96.2253C38.3421 95.5773 38.2384 93.5423 38.0462 92.4644" stroke="#442257" stroke-linecap="round" stroke-linejoin="round"/>
<path d="M36.5405 11.583C36.62 15.5029 36.3758 19.4226 35.8104 23.3023C35.5792 25.0154 35.2725 28.8541 34.7951 31.5436" stroke="#442257" stroke-linecap="round" stroke-linejoin="round"/>
<path d="M32.1855 17.2212L32.2935 16.5796" stroke="#442257" stroke-linecap="round" stroke-linejoin="round"/>
<path d="M34.7346 17.2623L34.862 16.543" stroke="#442257" stroke-linecap="round" stroke-linejoin="round"/>
<path d="M27.8996 49.8753C26.422 45.9178 22.9742 41.4115 22.2225 40.6922C20.7838 39.3161 21.65 36.7109 24.1537 37.6895C22.6416 36.2356 18.8331 34.2158 18.8115 33.2502C18.7747 31.7899 22.1382 29.85 23.3004 29.9753C25.2814 30.1913 26.4177 35.27 26.7719 36.834C27.1262 38.398 28.6038 47.067 27.9169 51.4178" stroke="#442257" stroke-linecap="round" stroke-linejoin="round"/>
<path d="M23.6828 29.9774C23.6828 29.9774 23.9766 29.1133 24.1494 28.4414C25.6832 27.9856 28.1243 29.137 29.4895 29.6879C30.5502 30.1199 30.8224 31.7012 30.9887 32.6647C31.2566 34.2157 31.5936 35.7538 31.7686 37.32C32.0667 39.9836 32.3065 45.6823 31.9695 48.3221" stroke="#442257" stroke-linecap="round" stroke-linejoin="round"/>
<path d="M26.5214 34.6003C27.204 34.8617 27.8175 35.3153 28.5714 35.3434C29.2713 34.1402 29.3469 31.4399 29.537 30.0336" stroke="#442257" stroke-linecap="round" stroke-linejoin="round"/>
<path d="M26.1476 69.7474C26.0612 71.4475 23.7368 89.0318 23.5878 90.7687C23.3717 93.2097 22.4536 101.892 22.1512 103.758C22.0151 104.601 21.6068 107.843 20.9825 108.511C20.436 109.09 17.5261 109.189 16.7484 109.267C14.437 109.5 12.1925 109.666 9.93938 109.761C6.91505 109.889 5.13934 109.928 2.13661 109.623C0.939844 109.502 1.21419 109.66 1.04137 108.792C0.859913 107.869 1.32653 90.14 1.45398 85.7699C1.58143 81.3997 2.27703 75.863 2.68099 72.398C3.06551 69.0972 4.62521 52.4936 8.31705 45.0969C9.39717 42.9583 11.808 38.9403 13.413 37.1538C14.5364 35.903 16.7182 34.1748 18.8547 33.6974" stroke="#442257" stroke-linecap="round" stroke-linejoin="round"/>
<path d="M36.1409 33.8096C38.2341 36.4753 39.7031 39.4694 40.1546 42.0595" stroke="#442257" stroke-linecap="round" stroke-linejoin="round"/>
<path d="M31.9695 39.5041C32.6932 36.5424 34.5618 31.9432 36.0199 29.351C36.7285 29.999 37.4608 32.6777 37.1908 33.6606C36.6529 33.5418 35.0975 33.7946 34.5747 33.6196" stroke="#442257" stroke-linecap="round" stroke-linejoin="round"/>
<path d="M36.1409 44.9543C36.1409 44.9543 36.1193 40.9859 35.9249 39.504C35.6916 37.7262 35.3632 35.6502 34.8447 33.9846" stroke="#442257" stroke-linecap="round" stroke-linejoin="round"/>
<path d="M43.8853 40.8908C44.5214 40.3276 45.0748 39.6774 45.5293 38.9596C46.3264 37.7715 46.0391 34.0191 47.197 32.872C49.2859 31.0099 49.1131 35.2483 49.0137 37.2703C51.7075 35.3261 53.8937 34.408 53.9304 37.0435C55.1531 36.4904 55.4577 38.4541 54.9695 39.2037C56.1771 39.8842 55.7169 41.3639 55.0732 42.0811C56.028 42.9452 54.8572 44.5827 54.0406 45.2999C53.1069 46.058 51.9696 46.5225 50.7722 46.6349C50.0744 46.6716 48.8971 46.5917 48.1799 46.2569L47.1257 46.9546" stroke="#442257" stroke-linecap="round" stroke-linejoin="round"/>
<path d="M51.0379 39.9448C52.1871 39.2557 53.4466 38.3246 53.9261 37.0436" stroke="#442257" stroke-linecap="round" stroke-linejoin="round"/>
<path d="M51.794 42.0597C52.7618 41.4764 54.6023 40.392 54.9652 39.1952" stroke="#442257" stroke-linecap="round" stroke-linejoin="round"/>
<path d="M53.1743 43.8461C53.8899 43.3524 54.5277 42.7546 55.0667 42.0725" stroke="#442257" stroke-linecap="round" stroke-linejoin="round"/>
<path d="M97.1978 134.183C97.1503 133.155 97.1783 131.204 97.1783 131.204" stroke="#442257" stroke-linecap="round" stroke-linejoin="round"/>
<path d="M107.539 130.923L107.424 134.399" stroke="#442257" stroke-linecap="round" stroke-linejoin="round"/>
<path d="M87.4357 134.017C87.3946 132.599 87.6106 131.208 87.5998 129.798" stroke="#442257" stroke-linecap="round" stroke-linejoin="round"/>
</svg>
