<svg width="18" height="18" viewBox="0 0 18 18" fill="none" xmlns="http://www.w3.org/2000/svg">
<path d="M16.2 0H1.8C0.81 0 0.00899999 0.871717 0.00899999 1.93715L0 17.0275C0 17.8896 0.972 18.3254 1.539 17.7152L3.6 15.4972H16.2C17.19 15.4972 18 14.6255 18 13.56V1.93715C18 0.871717 17.19 0 16.2 0ZM5.4 8.71717C4.905 8.71717 4.5 8.28131 4.5 7.7486C4.5 7.21588 4.905 6.78002 5.4 6.78002C5.895 6.78002 6.3 7.21588 6.3 7.7486C6.3 8.28131 5.895 8.71717 5.4 8.71717ZM9 8.71717C8.505 8.71717 8.1 8.28131 8.1 7.7486C8.1 7.21588 8.505 6.78002 9 6.78002C9.495 6.78002 9.9 7.21588 9.9 7.7486C9.9 8.28131 9.495 8.71717 9 8.71717ZM12.6 8.71717C12.105 8.71717 11.7 8.28131 11.7 7.7486C11.7 7.21588 12.105 6.78002 12.6 6.78002C13.095 6.78002 13.5 7.21588 13.5 7.7486C13.5 8.28131 13.095 8.71717 12.6 8.71717Z" fill="white"/>
</svg>
