<svg width="16" height="11" viewBox="0 0 16 11" fill="none" xmlns="http://www.w3.org/2000/svg">
<path d="M7.63661 2.27733C9.8525 2.27742 11.9837 3.12886 13.5896 4.65566C13.7105 4.77354 13.9038 4.77205 14.0229 4.65233L15.1789 3.48566C15.2392 3.42494 15.2729 3.34269 15.2724 3.25711C15.2719 3.17153 15.2373 3.08967 15.1763 3.02966C10.9612 -1.00989 4.31137 -1.00989 0.0962734 3.02966C0.0352148 3.08963 0.000570602 3.17146 7.60191e-06 3.25704C-0.000555498 3.34262 0.0330088 3.42489 0.0932731 3.48566L1.24961 4.65233C1.36863 4.77223 1.56208 4.77372 1.68294 4.65566C3.28909 3.12876 5.4205 2.27732 7.63661 2.27733ZM7.63661 6.07299C8.8541 6.07292 10.0281 6.52545 10.9306 7.34266C11.0527 7.45864 11.2449 7.45613 11.3639 7.33699L12.5186 6.17033C12.5794 6.10913 12.6132 6.02612 12.6123 5.93985C12.6114 5.85359 12.576 5.77127 12.5139 5.71133C9.76574 3.15494 5.5098 3.15494 2.76161 5.71133C2.69953 5.77127 2.66411 5.85363 2.6633 5.93992C2.66248 6.02621 2.69634 6.10922 2.75727 6.17033L3.91161 7.33699C4.03059 7.45613 4.22288 7.45864 4.34494 7.34266C5.24681 6.52599 6.41992 6.0735 7.63661 6.07299ZM9.85561 8.85733C9.91736 8.79672 9.95137 8.71332 9.9496 8.62681C9.94783 8.54031 9.91045 8.45836 9.84627 8.40033C8.5707 7.32144 6.70251 7.32144 5.42694 8.40033C5.36272 8.45831 5.32527 8.54023 5.32344 8.62674C5.32161 8.71325 5.35556 8.79668 5.41727 8.85733L7.41494 10.873C7.47349 10.9322 7.55332 10.9656 7.63661 10.9656C7.7199 10.9656 7.79972 10.9322 7.85827 10.873L9.85561 8.85733Z" fill="#111111"/>
</svg>
