<svg width="22" height="25" viewBox="0 0 22 25" fill="none" xmlns="http://www.w3.org/2000/svg">
<path d="M19.868 7.57415H18.4454C18.272 7.57415 18.1313 7.73447 18.1313 7.93222C18.1313 8.12997 18.272 8.29029 18.4454 8.29029H19.868C20.3875 8.29029 20.8101 8.77217 20.8101 9.36451V23.7044C20.8101 23.7176 20.8007 23.7283 20.7892 23.7283H17.2938V22.296H18.8979C19.2542 22.296 19.5453 21.9655 19.5469 21.5593L19.554 19.7962C19.5573 19.3916 19.2588 19.0508 18.905 19.0528H17.2938V17.6413H18.8979C19.2542 17.6413 19.5453 17.3108 19.5469 16.9046L19.554 15.1414C19.5573 14.7368 19.2588 14.3961 18.905 14.3981H17.2938V12.9658H18.8979C19.2542 12.9658 19.5453 12.6353 19.5469 12.2291L19.554 10.4659C19.5573 10.0613 19.2588 9.72058 18.905 9.72254H17.2938V6.01562C17.2938 5.02839 16.5894 4.22526 15.7236 4.22526H14.7265C14.5658 1.8647 12.8299 0 10.7191 0C8.60831 0 6.87236 1.8647 6.71166 4.22526H5.69452C4.8287 4.22526 4.12434 5.02839 4.12434 6.01562V7.57415H1.57018C0.704362 7.57415 0 8.37728 0 9.36451V23.7044C0 24.1125 0.291132 24.4444 0.649008 24.4444H20.7892C21.1471 24.4444 21.4382 24.1125 21.4382 23.7044V9.36451C21.4382 8.37728 20.7338 7.57415 19.868 7.57415ZM17.2938 10.4387H18.905C18.9071 10.4387 18.9137 10.4387 18.9198 10.4458C18.9259 10.4528 18.9259 10.4602 18.9259 10.4627L18.9189 12.2258C18.9189 12.2389 18.9094 12.2496 18.898 12.2496H17.2938V10.4387ZM17.2938 15.1142H18.905C18.9071 15.1142 18.9137 15.1142 18.9198 15.1212C18.9259 15.1282 18.9259 15.1357 18.9259 15.1382L18.9189 16.9013C18.9189 16.9144 18.9094 16.9251 18.898 16.9251H17.2938V15.1142ZM17.2938 19.769H18.905C18.9071 19.769 18.9137 19.769 18.9198 19.776C18.9259 19.783 18.9259 19.7905 18.9259 19.7929L18.9189 21.5561C18.9189 21.5692 18.9094 21.5799 18.898 21.5799H17.2938V19.769ZM4.12434 21.5799H2.54034C2.52866 21.5799 2.51945 21.5695 2.51941 21.5562L2.51229 19.7931C2.51229 19.7906 2.51225 19.783 2.5184 19.776C2.52451 19.769 2.53109 19.769 2.53322 19.769H4.12434V21.5799ZM4.12434 16.9249H2.54034C2.52866 16.9249 2.51945 16.9146 2.51941 16.9013L2.51229 15.1382C2.51229 15.1357 2.51225 15.1282 2.51848 15.1211C2.52464 15.114 2.53109 15.114 2.53322 15.114H4.12434V16.9249ZM4.12434 12.2494H2.54034C2.52866 12.2494 2.51945 12.2391 2.51941 12.2258L2.51229 10.4627C2.51229 10.4602 2.51225 10.4528 2.51848 10.4456C2.52464 10.4385 2.53109 10.4385 2.53322 10.4385H4.12434V12.2494ZM4.12434 9.7224H2.53322C2.17811 9.72015 1.88108 10.0618 1.88422 10.466L1.89133 12.2291C1.89297 12.6352 2.1841 12.9656 2.54034 12.9656H4.12434V14.3979H2.53322C2.17811 14.3956 1.88108 14.7374 1.88422 15.1415L1.89133 16.9046C1.89297 17.3107 2.1841 17.6411 2.54034 17.6411H4.12434V19.0529H2.53322C2.1779 19.0506 1.88108 19.3921 1.88422 19.7965L1.89133 21.5596C1.89293 21.9656 2.1841 22.296 2.54034 22.296H4.12434V23.7283H0.649008C0.637451 23.7283 0.628072 23.7176 0.628072 23.7044V9.36451C0.628072 8.77217 1.05068 8.29029 1.57018 8.29029H4.12434V9.7224ZM10.7191 0.716146C12.5892 0.716146 14.1107 2.45094 14.1107 4.58333C14.1107 6.71573 12.5892 8.45052 10.7191 8.45052C8.84895 8.45052 7.32751 6.71573 7.32751 4.58333C7.32751 2.45094 8.84895 0.716146 10.7191 0.716146ZM13.5255 23.7283H11.0331V17.4227H13.5255V23.7283ZM7.28463 16.7065V15.9904H14.1536V16.7065H7.28463ZM16.6657 23.7283H14.1536V17.4227C14.4814 17.4444 14.7837 17.171 14.7816 16.7782V15.9188C14.7816 15.5634 14.5281 15.2742 14.2164 15.2742H7.22182C6.91013 15.2742 6.65656 15.5634 6.65656 15.9188V16.7782C6.65434 17.1545 6.95129 17.4618 7.28463 17.4227V19.9583C7.28463 20.156 7.42523 20.3163 7.59867 20.3163C7.7721 20.3163 7.9127 20.156 7.9127 19.9583V17.4227H10.4051V23.7283H7.9127V21.6293C7.9127 21.4315 7.7721 21.2712 7.59867 21.2712C7.42523 21.2712 7.28463 21.4315 7.28463 21.6293V23.7283H4.75241V6.01562C4.75241 5.42328 5.17502 4.94141 5.69452 4.94141H6.71166C6.87236 7.30197 8.60831 9.16667 10.7191 9.16667C12.8299 9.16667 14.5658 7.30197 14.7265 4.94141H15.7236C16.2431 4.94141 16.6657 5.42328 16.6657 6.01562V23.7283ZM9.77699 5.65755V7.08984C9.77699 7.44524 10.0306 7.73438 10.3423 7.73438H11.0959C11.4076 7.73438 11.6612 7.44524 11.6612 7.08984V5.65755H12.9173C13.229 5.65755 13.4826 5.36842 13.4826 5.01302V4.15365C13.4826 3.79825 13.229 3.50911 12.9173 3.50911H11.6612V2.07682C11.6612 1.72142 11.4076 1.43229 11.0959 1.43229H10.3423C10.0306 1.43229 9.77699 1.72142 9.77699 2.07682V3.50911H8.52084C8.20915 3.50911 7.95558 3.79825 7.95558 4.15365V5.01302C7.95558 5.36842 8.20915 5.65755 8.52084 5.65755H9.77699ZM8.58365 4.22526H9.96541C10.2078 4.22526 10.4051 4.00039 10.4051 3.72396V2.14844H11.0331V3.72396C11.0331 4.00039 11.2303 4.22526 11.4728 4.22526H12.8545V4.94141H11.4728C11.2303 4.94141 11.0331 5.16628 11.0331 5.44271V7.01823H10.4051V5.44271C10.4051 5.16628 10.2078 4.94141 9.96541 4.94141H8.58365V4.22526ZM9.46295 21.3C9.63638 21.3 9.77699 21.1397 9.77699 20.942V20.2091C9.77699 20.0113 9.63638 19.851 9.46295 19.851C9.28952 19.851 9.14892 20.0113 9.14892 20.2091V20.942C9.14892 21.1397 9.28952 21.3 9.46295 21.3ZM9.44202 10.599H6.6661C6.30982 10.599 6.01869 10.9294 6.0171 11.3356L6.0101 13.0987C6.00634 13.5013 6.30454 13.8444 6.65911 13.8421H9.44202C9.79989 13.8421 10.091 13.5102 10.091 13.1021V11.339C10.091 10.9309 9.79989 10.599 9.44202 10.599ZM9.46295 13.1021C9.46295 13.1153 9.45357 13.126 9.44202 13.126H6.65907C6.65074 13.1272 6.637 13.1115 6.63813 13.102L6.64513 11.3388C6.64517 11.3258 6.65455 11.3151 6.66606 11.3151H9.44202C9.45357 11.3151 9.46295 11.3258 9.46295 11.339V13.1021ZM11.9752 21.3C12.1487 21.3 12.2893 21.1397 12.2893 20.942V20.2091C12.2893 20.0113 12.1487 19.851 11.9752 19.851C11.8018 19.851 11.6612 20.0113 11.6612 20.2091V20.942C11.6612 21.1397 11.8018 21.3 11.9752 21.3ZM14.7691 10.599H11.9962C11.6383 10.599 11.3472 10.9309 11.3472 11.339V13.1021C11.3472 13.5102 11.6383 13.8421 11.9962 13.8421H14.762C15.1183 13.8421 15.4094 13.5117 15.411 13.1055L15.418 11.3423C15.4214 10.9377 15.1228 10.597 14.7691 10.599ZM14.783 13.1022C14.7829 13.1153 14.7735 13.126 14.762 13.126H11.9962C11.9846 13.126 11.9752 13.1153 11.9752 13.1021V11.339C11.9752 11.3258 11.9846 11.3151 11.9962 11.3151H14.7691C14.7712 11.3151 14.7778 11.3151 14.7839 11.3221C14.79 11.3291 14.79 11.3366 14.79 11.339L14.783 13.1022Z" fill="#142237"/>
</svg>
