<svg width="12" height="18" viewBox="0 0 12 18" fill="none" xmlns="http://www.w3.org/2000/svg">
<path d="M8.31653 4.37606V3.5779H8.75424C8.87033 3.5779 8.98167 3.53585 9.06375 3.46101C9.14584 3.38617 9.19196 3.28466 9.19196 3.17882V1.58249C9.19092 1.26526 9.05224 0.961285 8.8062 0.736964C8.56016 0.512643 8.22677 0.386201 7.87882 0.385254H3.5017C3.15375 0.386201 2.82035 0.512643 2.57432 0.736964C2.32828 0.961285 2.1896 1.26526 2.18856 1.58249V3.17882C2.18856 3.28466 2.23468 3.38617 2.31676 3.46101C2.39885 3.53585 2.51018 3.5779 2.62627 3.5779H3.06399V4.37606C2.25165 4.3769 1.47285 4.67149 0.898444 5.19521C0.324036 5.71892 0.000926795 6.42898 0 7.16962V16.7475C0.00103917 17.0648 0.139721 17.3688 0.385757 17.5931C0.631793 17.8174 0.965191 17.9438 1.31314 17.9448H10.0674C10.4153 17.9438 10.7487 17.8174 10.9948 17.5931C11.2408 17.3688 11.3795 17.0648 11.3805 16.7475V7.16962C11.3796 6.42898 11.0565 5.71892 10.4821 5.19521C9.90766 4.67149 9.12887 4.3769 8.31653 4.37606ZM3.06399 1.58249C3.06399 1.47665 3.1101 1.37514 3.19219 1.3003C3.27428 1.22546 3.38561 1.18341 3.5017 1.18341H7.87882C7.99491 1.18341 8.10624 1.22546 8.18833 1.3003C8.27042 1.37514 8.31653 1.47665 8.31653 1.58249V2.77974H3.06399V1.58249ZM10.5051 16.7475C10.5051 16.8534 10.459 16.9549 10.3769 17.0297C10.2948 17.1046 10.1835 17.1466 10.0674 17.1466H1.31314C1.19705 17.1466 1.08571 17.1046 1.00363 17.0297C0.921541 16.9549 0.875424 16.8534 0.875424 16.7475V15.5503H10.5051V16.7475ZM10.5051 14.7521H0.875424V8.36686H10.5051V14.7521ZM10.5051 7.5687H0.875424V7.16962C0.875424 6.6404 1.106 6.13287 1.51644 5.75866C1.92687 5.38445 2.48354 5.17422 3.06399 5.17422C3.29595 5.17359 3.51821 5.08929 3.68224 4.93974C3.84626 4.7902 3.93872 4.58755 3.93941 4.37606V3.5779H7.44111V4.37606C7.4418 4.58755 7.53425 4.7902 7.69828 4.93974C7.8623 5.08929 8.08457 5.17359 8.31653 5.17422C8.89697 5.17422 9.45364 5.38445 9.86408 5.75866C10.2745 6.13287 10.5051 6.6404 10.5051 7.16962V7.5687Z" fill="#142237"/>
</svg>
