<svg width="21" height="24" viewBox="0 0 21 24" fill="none" xmlns="http://www.w3.org/2000/svg">
<path d="M3.50168 18.7567H4.37711V19.5549C4.37711 19.6607 4.42322 19.7622 4.50531 19.8371C4.5874 19.9119 4.69873 19.9539 4.81482 19.9539H6.56567C6.68176 19.9539 6.79309 19.9119 6.87518 19.8371C6.95727 19.7622 7.00338 19.6607 7.00338 19.5549V18.7567H7.87881C7.9949 18.7567 8.10623 18.7147 8.18832 18.6398C8.2704 18.565 8.31652 18.4635 8.31652 18.3576V16.7613C8.31652 16.6555 8.2704 16.5539 8.18832 16.4791C8.10623 16.4043 7.9949 16.3622 7.87881 16.3622H7.00338V15.5641C7.00338 15.4582 6.95727 15.3567 6.87518 15.2819C6.79309 15.207 6.68176 15.165 6.56567 15.165H4.81482C4.69873 15.165 4.5874 15.207 4.50531 15.2819C4.42322 15.3567 4.37711 15.4582 4.37711 15.5641V16.3622H3.50168C3.3856 16.3622 3.27426 16.4043 3.19218 16.4791C3.11009 16.5539 3.06397 16.6555 3.06397 16.7613V18.3576C3.06397 18.4635 3.11009 18.565 3.19218 18.6398C3.27426 18.7147 3.3856 18.7567 3.50168 18.7567ZM3.9394 17.1604H4.81482C4.93091 17.1604 5.04224 17.1183 5.12433 17.0435C5.20642 16.9686 5.25253 16.8671 5.25253 16.7613V15.9631H6.12796V16.7613C6.12796 16.8671 6.17407 16.9686 6.25616 17.0435C6.33825 17.1183 6.44958 17.1604 6.56567 17.1604H7.44109V17.9585H6.56567C6.44958 17.9585 6.33825 18.0006 6.25616 18.0754C6.17407 18.1503 6.12796 18.2518 6.12796 18.3576V19.1558H5.25253V18.3576C5.25253 18.2518 5.20642 18.1503 5.12433 18.0754C5.04224 18.0006 4.93091 17.9585 4.81482 17.9585H3.9394V17.1604Z" fill="#442257"/>
<path d="M8.31653 10.3761V9.57796H8.75424C8.87033 9.57796 8.98167 9.53591 9.06375 9.46107C9.14584 9.38623 9.19196 9.28472 9.19196 9.17888V7.58256C9.19092 7.26532 9.05224 6.96135 8.8062 6.73703C8.56016 6.5127 8.22677 6.38626 7.87882 6.38531H3.5017C3.15375 6.38626 2.82035 6.5127 2.57432 6.73703C2.32828 6.96135 2.1896 7.26532 2.18856 7.58256V9.17888C2.18856 9.28472 2.23468 9.38623 2.31676 9.46107C2.39885 9.53591 2.51018 9.57796 2.62627 9.57796H3.06399V10.3761C2.25165 10.377 1.47285 10.6716 0.898444 11.1953C0.324036 11.719 0.000926795 12.429 0 13.1697V22.7476C0.00103917 23.0648 0.139721 23.3688 0.385757 23.5931C0.631793 23.8175 0.965191 23.9439 1.31314 23.9448H10.0674C10.4153 23.9439 10.7487 23.8175 10.9948 23.5931C11.2408 23.3688 11.3795 23.0648 11.3805 22.7476V13.1697C11.3796 12.429 11.0565 11.719 10.4821 11.1953C9.90767 10.6716 9.12887 10.377 8.31653 10.3761ZM3.06399 7.58256C3.06399 7.47671 3.1101 7.37521 3.19219 7.30036C3.27428 7.22552 3.38561 7.18348 3.5017 7.18348H7.87882C7.99491 7.18348 8.10624 7.22552 8.18833 7.30036C8.27042 7.37521 8.31653 7.47671 8.31653 7.58256V8.7798H3.06399V7.58256ZM10.5051 22.7476C10.5051 22.8534 10.459 22.955 10.3769 23.0298C10.2948 23.1046 10.1835 23.1467 10.0674 23.1467H1.31314C1.19705 23.1467 1.08571 23.1046 1.00363 23.0298C0.92154 22.955 0.875424 22.8534 0.875424 22.7476V21.5504H10.5051V22.7476ZM10.5051 20.7522H0.875424V14.3669H10.5051V20.7522ZM10.5051 13.5688H0.875424V13.1697C0.875424 12.6405 1.106 12.1329 1.51644 11.7587C1.92687 11.3845 2.48354 11.1743 3.06399 11.1743C3.29595 11.1736 3.51821 11.0894 3.68224 10.9398C3.84626 10.7903 3.93872 10.5876 3.93941 10.3761V9.57796H7.44111V10.3761C7.4418 10.5876 7.53426 10.7903 7.69828 10.9398C7.8623 11.0894 8.08457 11.1736 8.31653 11.1743C8.89697 11.1743 9.45364 11.3845 9.86408 11.7587C10.2745 12.1329 10.5051 12.6405 10.5051 13.1697V13.5688Z" fill="#442257"/>
<path d="M19.697 19.954C20.005 19.9518 20.3023 19.851 20.537 19.6693C20.7717 19.4875 20.9289 19.2363 20.981 18.9595C21.0332 18.6828 20.977 18.3982 20.8223 18.1554C20.6676 17.9126 20.4243 17.7271 20.1348 17.6314V5.9862C20.1337 5.66897 19.995 5.36499 19.749 5.14067C19.503 4.91635 19.1696 4.78991 18.8216 4.78896H18.3839V4.38988C18.3829 4.07265 18.2442 3.76867 17.9982 3.54435C17.7521 3.32003 17.4187 3.19359 17.0708 3.19264V0.39908C17.0708 0.293238 17.0247 0.19173 16.9426 0.116888C16.8605 0.0420458 16.7491 0 16.6331 0C16.517 0 16.4056 0.0420458 16.3235 0.116888C16.2415 0.19173 16.1953 0.293238 16.1953 0.39908V3.19264C15.8474 3.19359 15.514 3.32003 15.268 3.54435C15.0219 3.76867 14.8832 4.07265 14.8822 4.38988V4.78896H14.4445C14.0965 4.78991 13.7631 4.91635 13.5171 5.14067C13.2711 5.36499 13.1324 5.66897 13.1314 5.9862V17.6314C12.8419 17.7271 12.5985 17.9126 12.4438 18.1554C12.2891 18.3982 12.2329 18.6828 12.2851 18.9595C12.3372 19.2363 12.4944 19.4875 12.7291 19.6693C12.9638 19.851 13.2611 19.9518 13.5691 19.954H14.8822V21.5503H14.4445C14.0962 21.5503 13.7622 21.6765 13.516 21.901C13.2697 22.1255 13.1314 22.43 13.1314 22.7476C13.1314 23.0651 13.2697 23.3696 13.516 23.5941C13.7622 23.8187 14.0962 23.9448 14.4445 23.9448H18.8216C19.1699 23.9448 19.5039 23.8187 19.7502 23.5941C19.9964 23.3696 20.1348 23.0651 20.1348 22.7476C20.1348 22.43 19.9964 22.1255 19.7502 21.901C19.5039 21.6765 19.1699 21.5503 18.8216 21.5503H18.3839V19.954H19.697ZM15.7576 4.38988C15.7576 4.28404 15.8037 4.18253 15.8858 4.10769C15.9679 4.03285 16.0793 3.9908 16.1953 3.9908H17.0708C17.1869 3.9908 17.2982 4.03285 17.3803 4.10769C17.4624 4.18253 17.5085 4.28404 17.5085 4.38988V4.78896H15.7576V4.38988ZM14.0068 5.9862C14.0068 5.88036 14.0529 5.77885 14.135 5.70401C14.2171 5.62917 14.3284 5.58712 14.4445 5.58712H18.8216C18.9377 5.58712 19.049 5.62917 19.1311 5.70401C19.2132 5.77885 19.2593 5.88036 19.2593 5.9862V6.38528H17.9462C17.8301 6.38528 17.7188 6.42733 17.6367 6.50217C17.5546 6.57701 17.5085 6.67852 17.5085 6.78436C17.5085 6.89021 17.5546 6.99171 17.6367 7.06656C17.7188 7.1414 17.8301 7.18344 17.9462 7.18344H19.2593V7.9816H17.0708C16.9547 7.9816 16.8433 8.02365 16.7613 8.09849C16.6792 8.17333 16.6331 8.27484 16.6331 8.38068C16.6331 8.48653 16.6792 8.58804 16.7613 8.66288C16.8433 8.73772 16.9547 8.77977 17.0708 8.77977H19.2593V9.57792H17.9462C17.8301 9.57792 17.7188 9.61997 17.6367 9.69481C17.5546 9.76966 17.5085 9.87116 17.5085 9.97701C17.5085 10.0828 17.5546 10.1844 17.6367 10.2592C17.7188 10.334 17.8301 10.3761 17.9462 10.3761H19.2593V11.1742H17.0708C16.9547 11.1742 16.8433 11.2163 16.7613 11.2911C16.6792 11.366 16.6331 11.4675 16.6331 11.5733C16.6331 11.6792 16.6792 11.7807 16.7613 11.8555C16.8433 11.9304 16.9547 11.9724 17.0708 11.9724H19.2593V12.7706H17.9462C17.8301 12.7706 17.7188 12.8126 17.6367 12.8875C17.5546 12.9623 17.5085 13.0638 17.5085 13.1696C17.5085 13.2755 17.5546 13.377 17.6367 13.4518C17.7188 13.5267 17.8301 13.5687 17.9462 13.5687H19.2593V14.3669H17.0708C16.9547 14.3669 16.8433 14.4089 16.7613 14.4838C16.6792 14.5586 16.6331 14.6601 16.6331 14.766C16.6331 14.8718 16.6792 14.9733 16.7613 15.0482C16.8433 15.123 16.9547 15.165 17.0708 15.165H19.2593V17.5595H14.0068V5.9862ZM18.8216 22.3485C18.9377 22.3485 19.049 22.3905 19.1311 22.4654C19.2132 22.5402 19.2593 22.6417 19.2593 22.7476C19.2593 22.8534 19.2132 22.9549 19.1311 23.0298C19.049 23.1046 18.9377 23.1467 18.8216 23.1467H14.4445C14.3284 23.1467 14.2171 23.1046 14.135 23.0298C14.0529 22.9549 14.0068 22.8534 14.0068 22.7476C14.0068 22.6417 14.0529 22.5402 14.135 22.4654C14.2171 22.3905 14.3284 22.3485 14.4445 22.3485H18.8216ZM15.7576 21.5503V19.954H17.5085V21.5503H15.7576ZM13.5691 19.1558C13.453 19.1558 13.3416 19.1138 13.2596 19.039C13.1775 18.9641 13.1314 18.8626 13.1314 18.7568C13.1314 18.6509 13.1775 18.5494 13.2596 18.4746C13.3416 18.3997 13.453 18.3577 13.5691 18.3577H19.697C19.8131 18.3577 19.9245 18.3997 20.0066 18.4746C20.0886 18.5494 20.1348 18.6509 20.1348 18.7568C20.1348 18.8626 20.0886 18.9641 20.0066 19.039C19.9245 19.1138 19.8131 19.1558 19.697 19.1558H13.5691Z" fill="#442257"/>
</svg>
